<mxfile host="app.diagrams.net" modified="2023-04-13T05:55:44.136Z" agent="Mozilla/5.0 (Windows NT 10.0; Win64; x64) AppleWebKit/537.36 (KHTML, like Gecko) Chrome/111.0.0.0 Safari/537.36" etag="qOfR1wc7lVtoyXexFw22" version="21.1.7" type="github">
  <diagram name="페이지-1" id="1-B2EeuNcx6KgM7vhO2H">
    <mxGraphModel dx="1434" dy="707" grid="1" gridSize="10" guides="1" tooltips="1" connect="1" arrows="1" fold="1" page="1" pageScale="1" pageWidth="827" pageHeight="1169" math="0" shadow="0">
      <root>
        <mxCell id="0" />
        <mxCell id="1" parent="0" />
        <mxCell id="osHzq3-RcKsWXg7tjdFi-1" value="" style="swimlane;startSize=0;" parent="1" vertex="1">
          <mxGeometry x="620" y="270" width="200" height="200" as="geometry" />
        </mxCell>
      </root>
    </mxGraphModel>
  </diagram>
</mxfile>
